#!OML:ASF F:\VICON\USERDATA\INSTALL\rory3\rory3.ASF
:FULLY-SPECIFIED
:DEGREES
47
root 0.47704467319204263 17.819335041869127 31.558056578046166 -4.296147807127316 -1.494891954948321 -4.3655806265070956
lfemur -15.280112885644243 -1.8022319234039035 -18.181497390351964
ltibia 23.21705572202439
lfoot -11.45198153772747 -0.4698595746323848
ltoes -9.747723529782863
rfemur -6.360887573404705 3.713513208659594 27.536738476537415
rtibia 57.337329778886534
rfoot -2.9119129790441125 -11.20369145480533
rtoes 10.546137442593151
lowerback 10.206689242581156 1.3238961045165734 3.721691104188619
upperback 0.1569085700406735 2.265377846821492 1.0011540976778104
thorax -4.968157029393087 1.0693242541209154 -1.2702910496266195
lowerneck -16.22544342009036 -3.299308296317404 -1.5638199516348774
upperneck 21.591044019698362 -4.414937448763764 1.3703123934633492
head 9.643015982411637 -2.079853005765846 0.14743627059620398
lclavicle 4.253750004340002e-16 -8.047758856344514e-16
lhumerus -34.34220591199466 5.589562697205756 80.69678229876772
lradius 26.224348331162986
lwrist 7.511954584827224
lhand -28.732319967686703 20.739457922574474
lfingers nan
lthumb -1.9318909750146203 51.08424014423464
rclavicle 4.3197989171893564e-16 -7.974507286672824e-16
rhumerus -25.094066894193414 -11.912545148250807 -79.90242607784063
rradius 30.50952329903907
rwrist 2.648358399799853
rhand -18.002958719014153 20.903041691280322
rfingers nan
rthumb 8.519380580791692 -8.171421851611614
48
root 0.45429722023839736 17.783128278082796 32.230547674706614 -4.672348861870306 -1.9229904719048114 -2.632777235322644
lfemur -11.956840952417245 -1.7830140909092704 -20.02567429648647
ltibia 22.147509975612007
lfoot -11.45069673720888 0.4330425777573921
ltoes -9.293597348230355
rfemur -10.12059033959593 3.0660824029914884 25.255153333819266
rtibia 62.212152170572594
rfoot -4.14365512266717 -8.880176359745857
rtoes 9.803718747628409
lowerback 10.30252978747096 1.180589381813928 2.10537680240573
upperback 0.22709839814760863 1.7600405662961323 0.7953103886389303
thorax -5.025200274622957 0.848545261495695 -0.7189110039282226
lowerneck -16.2943300474348 -3.268573569650288 -1.5223743130840397
upperneck 21.529768117508766 -4.368142025082699 1.4726859442361175
head 9.626476258450303 -2.0573392206262273 0.20488604746265854
lclavicle 4.1991942136692613e-16 -8.074418301595969e-16
lhumerus -33.240514774128336 4.682325737737432 80.57612513100192
lradius 26.817648293357436
lwrist 7.47853772275903
lhand -28.62393909567678 20.72514607237517
lfingers nan
lthumb -1.8184514449860851 51.05470673822523
rclavicle 4.2941026267294233e-16 -7.983042968656232e-16
rhumerus -25.746669669632848 -13.163526066422186 -80.82742518979713
rradius 29.433783973782262
rwrist 2.539239061694821
rhand -17.943751239938955 20.992467873267493
rfingers nan
rthumb 8.563758116905307 -8.069872861497478
49
root 0.45465995591785213 17.759084448435566 33.13559506533434 -4.503350475670033 -2.1842821575635147 -1.6863593814267852
lfemur -8.308434269859962 -1.8833461090119332 -21.107335579115084
ltibia 21.083389811679332
lfoot -11.031560162455051 -0.10105825552119141
ltoes -10.110701762563897
rfemur -14.020140954777945 2.2116311052486184 23.407341629578696
rtibia 65.41610638620642
rfoot -5.384801648982291 -5.966303943177991
rtoes 8.359973611757951
lowerback 10.191493823269294 0.9309359887283979 1.2762812067431146
upperback 0.24148325787084354 1.3141640870052802 0.6943984539696193
thorax -5.0908356884787995 0.647260885313937 -0.25647847107849575
lowerneck -16.360688800683747 -3.2263351971297283 -1.4799899673960535
upperneck 21.430947017829073 -4.302882617276626 1.540993152118124
head 9.618189471630613 -2.028103981732175 0.2477126867845681
lclavicle 4.11682499830582e-16 -8.111634369918835e-16
lhumerus -31.97873375083292 3.8807419160220906 80.42578488855771
lradius 27.374780937651593
lwrist 7.282611277101548
lhand -28.497733464796834 20.664262859012425
lfingers nan
lthumb -1.6985995564733039 51.01390638019935
rclavicle 4.272593616994902e-16 -7.98187355885324e-16
rhumerus -26.528845155879363 -14.702286256683307 -81.59763352870145
rradius 28.53160973481776
rwrist 2.4424756680807693
rhand -18.008882728468716 20.842139966538454
rfingers nan
rthumb 8.527389167391364 -8.0947320412277
50
root 0.47602188709511845 17.768784871560502 33.51624247260605 -3.841504081493331 -1.9747571064383147 -1.645031976955812
lfemur -4.9818122915112815 -2.1837053084339177 -21.36992550220434
ltibia 20.285663427268062
lfoot -8.842588865952349 -0.557212270110965
ltoes -10.480178410495407
rfemur -18.615292948724395 1.6074381190568483 22.44518831826872
rtibia 66.98299931797487
rfoot -6.305988137211845 -3.396589738298061
rtoes 6.292242484320372
lowerback 9.948787052538679 0.5454874053898564 1.2771891625944594
upperback 0.17083378990310719 0.8728040091471494 0.8121386001669331
thorax -5.189236284570808 0.44211989795483164 0.14306037585264064
lowerneck -16.448044890374426 -3.1669087153196545 -1.4511996077233005
upperneck 21.349062227487256 -4.204695571417815 1.5519155120671133
head 9.61707739886036 -1.9876917868301711 0.27847736186428496
lclavicle 4.0339750155266824e-16 -8.151634296886685e-16
lhumerus -30.555694046098008 3.18092619700504 80.25966337919233
lradius 27.83530526316225
lwrist 6.503071007891635
lhand -28.40112710859087 20.461328137522685
lfingers nan
lthumb -1.6577067315433838 50.67232825167378
rclavicle 4.2551383163642685e-16 -7.979652182863816e-16
rhumerus -27.454218274181933 -16.26540157307735 -82.17046085441956
rradius 27.9568056850021
rwrist 2.202337150216116
rhand -17.945249188486557 21.009622359483576
rfingers nan
rthumb 8.529228544746536 -8.01100603726194
